<mxfile host="65bd71144e">
    <diagram id="mfv1DinRaUrT-yU_w88x" name="第 1 页">
        <mxGraphModel dx="933" dy="607" grid="1" gridSize="10" guides="1" tooltips="1" connect="1" arrows="1" fold="1" page="1" pageScale="1" pageWidth="827" pageHeight="1169" math="1" shadow="0">
            <root>
                <mxCell id="0"/>
                <mxCell id="1" parent="0"/>
                <mxCell id="6" value="&lt;font style=&quot;font-size: 19px;&quot; face=&quot;Times New Roman&quot;&gt;(a)&lt;/font&gt;" style="rounded=0;whiteSpace=wrap;html=1;container=1;verticalAlign=bottom;strokeColor=none;fontFamily=Times New Roman;fontSize=19;fillColor=none;" vertex="1" parent="1">
                    <mxGeometry x="120" y="280" width="130" height="140" as="geometry">
                        <mxRectangle x="177" y="190" width="50" height="40" as="alternateBounds"/>
                    </mxGeometry>
                </mxCell>
                <mxCell id="4" value="$$&#10;\begin{bmatrix}&#10;0 &amp;amp; 1 &amp;amp; 0 &amp;amp; 1 \\&#10;1 &amp;amp; 0 &amp;amp; 1 &amp;amp; 0 \\&#10;0 &amp;amp; 1 &amp;amp; 0 &amp;amp; 1 \\&#10;1 &amp;amp; 0 &amp;amp; 1 &amp;amp; 0&#10;\end{bmatrix}&#10;$$" style="text;html=1;strokeColor=none;fillColor=none;align=center;verticalAlign=middle;whiteSpace=wrap;rounded=0;fontSize=19;fontFamily=Times New Roman;" vertex="1" parent="6">
                    <mxGeometry x="5" width="120" height="120" as="geometry"/>
                </mxCell>
                <mxCell id="7" value="&lt;font style=&quot;font-size: 19px;&quot; face=&quot;Times New Roman&quot;&gt;(b)&lt;/font&gt;" style="rounded=0;whiteSpace=wrap;html=1;container=1;verticalAlign=bottom;strokeColor=none;fontFamily=Times New Roman;fontSize=19;fillColor=none;" vertex="1" parent="1">
                    <mxGeometry x="270" y="280" width="130" height="140" as="geometry">
                        <mxRectangle x="177" y="190" width="50" height="40" as="alternateBounds"/>
                    </mxGeometry>
                </mxCell>
                <mxCell id="5" value="$$&#10;\begin{bmatrix}&#10;0 &amp; 1 &amp; 0 &amp; 1 \\&#10;1 &amp; 0 &amp; 1 &amp; 0 \\&#10;0 &amp; 0 &amp; 0 &amp; 0 \\&#10;0 &amp; 0 &amp; 1 &amp; 0&#10;\end{bmatrix}&#10;$$" style="text;html=1;strokeColor=none;fillColor=none;align=center;verticalAlign=middle;whiteSpace=wrap;rounded=0;fontFamily=Times New Roman;fontSize=19;" vertex="1" parent="7">
                    <mxGeometry x="5" width="120" height="120" as="geometry"/>
                </mxCell>
            </root>
        </mxGraphModel>
    </diagram>
</mxfile>